<?xml version="1.0" encoding="UTF-8"?>
<svg version="1.1" viewBox="0 0 755.74 345.3" xml:space="preserve" xmlns="http://www.w3.org/2000/svg"><defs><clipPath id="g"><path d="M 0,595.276 H 841.89 V 0 H 0 Z"/></clipPath><clipPath><path d="m0 595.28h841.89v-546.36h-841.89z"/></clipPath><clipPath id="f"><path d="M 0,595.276 H 841.89 V 0 H 0 Z"/></clipPath><linearGradient id="d" x2="1" gradientTransform="matrix(245.82 -109.27 -109.27 -245.82 187.98 409.25)" gradientUnits="userSpaceOnUse"><stop stop-color="#00a650" offset="0"/><stop stop-color="#00a650" offset=".07"/><stop stop-color="#00a650" offset=".070012"/><stop stop-color="#007440" offset=".19"/><stop stop-color="#004b2f" offset=".32999"/><stop stop-color="#004b2f" offset=".33"/><stop stop-color="#19793d" offset=".56959"/><stop stop-color="#19793d" offset=".57"/><stop stop-color="#19793d" offset=".57019"/><stop stop-color="#3bb549" offset=".64"/><stop stop-color="#3bb549" offset=".64025"/><stop stop-color="#2a8246" offset=".79"/><stop stop-color="#1d5840" offset=".99804"/><stop stop-color="#1d5840" offset="1"/></linearGradient><linearGradient id="c" x2="1" gradientTransform="matrix(247.42 -109.13 -109.13 -247.42 174.71 379.25)" gradientUnits="userSpaceOnUse"><stop stop-color="#00a650" offset="0"/><stop stop-color="#00a650" offset=".07"/><stop stop-color="#00a650" offset=".070012"/><stop stop-color="#007440" offset=".19"/><stop stop-color="#004b2f" offset=".32999"/><stop stop-color="#004b2f" offset=".33"/><stop stop-color="#19793d" offset=".56959"/><stop stop-color="#19793d" offset=".57"/><stop stop-color="#19793d" offset=".57019"/><stop stop-color="#3bb549" offset=".64"/><stop stop-color="#3bb549" offset=".64025"/><stop stop-color="#2a8246" offset=".79"/><stop stop-color="#1d5840" offset=".99804"/><stop stop-color="#1d5840" offset="1"/></linearGradient><linearGradient id="b" x2="1" gradientTransform="matrix(245.81 -109.27 -109.27 -245.81 201.01 433.46)" gradientUnits="userSpaceOnUse"><stop stop-color="#00a650" offset="0"/><stop stop-color="#00a650" offset=".07"/><stop stop-color="#00a650" offset=".070012"/><stop stop-color="#007440" offset=".19"/><stop stop-color="#004b2f" offset=".32999"/><stop stop-color="#004b2f" offset=".33"/><stop stop-color="#19793d" offset=".56959"/><stop stop-color="#19793d" offset=".57"/><stop stop-color="#19793d" offset=".57019"/><stop stop-color="#3bb549" offset=".64"/><stop stop-color="#3bb549" offset=".64025"/><stop stop-color="#2a8246" offset=".79"/><stop stop-color="#1d5840" offset=".99804"/><stop stop-color="#1d5840" offset="1"/></linearGradient><linearGradient id="a" x2="1" gradientTransform="matrix(247.42 -109.13 -109.13 -247.42 188.65 406.07)" gradientUnits="userSpaceOnUse"><stop stop-color="#00a650" offset="0"/><stop stop-color="#00a650" offset=".07"/><stop stop-color="#00a650" offset=".070012"/><stop stop-color="#007440" offset=".19"/><stop stop-color="#004b2f" offset=".32999"/><stop stop-color="#004b2f" offset=".33"/><stop stop-color="#19793d" offset=".56959"/><stop stop-color="#19793d" offset=".57"/><stop stop-color="#19793d" offset=".57019"/><stop stop-color="#3bb549" offset=".64"/><stop stop-color="#3bb549" offset=".64025"/><stop stop-color="#2a8246" offset=".79"/><stop stop-color="#1d5840" offset=".99804"/><stop stop-color="#1d5840" offset="1"/></linearGradient><linearGradient id="e" x2="1" gradientTransform="matrix(227.23 -110.58 -110.58 -227.23 207.48 437.49)" gradientUnits="userSpaceOnUse"><stop stop-color="#00a650" offset="0"/><stop stop-color="#00a650" offset=".07"/><stop stop-color="#00a650" offset=".070012"/><stop stop-color="#007440" offset=".19"/><stop stop-color="#004b2f" offset=".32999"/><stop stop-color="#004b2f" offset=".33"/><stop stop-color="#19793d" offset=".56959"/><stop stop-color="#19793d" offset=".57"/><stop stop-color="#19793d" offset=".57019"/><stop stop-color="#3bb549" offset=".64"/><stop stop-color="#3bb549" offset=".64025"/><stop stop-color="#2a8246" offset=".79"/><stop stop-color="#1d5840" offset=".99804"/><stop stop-color="#1d5840" offset="1"/></linearGradient><clipPath id="h"><path d="M 0,595.276 H 841.89 V 0 H 0 Z"/></clipPath></defs><g transform="matrix(1.3333 0 0 -1.3333 -174.99 623.47)"><g><g clip-path="url(#g)"/></g><g><g clip-path="url(#f)"><g transform="translate(220.82 208.63)"><path d="m0 0c-13.715 0-26.495 7.522-33.354 19.635l-51.079 90.214c-6.856 12.112-6.856 27.161 0 39.272l51.079 90.216c6.858 12.113 19.639 19.636 33.354 19.636h387.66c13.716 0 26.497-7.523 33.356-19.636l51.077-90.216c6.857-12.111 6.857-27.16 0-39.272l-51.077-90.214c-6.859-12.113-19.64-19.635-33.356-19.635z" fill="#ffe2ae"/></g><g transform="translate(229.4 215.19)"><path d="m0 0c-13.22 0-25.537 7.11-32.148 18.56l-49.226 85.266c-6.61 11.446-6.61 25.67 0 37.116l49.226 85.267c6.611 11.448 18.928 18.559 32.148 18.559h373.62c13.219 0 25.536-7.111 32.148-18.559l49.227-85.267c6.61-11.446 6.61-25.67 0-37.116l-49.227-85.266c-6.612-11.45-18.929-18.56-32.148-18.56z" fill="#fbfbfd"/></g><g transform="translate(603.02 456.25)"><path d="m0 0h-373.62c-11.939 0-22.97-6.37-28.939-16.707l-49.226-85.266c-5.971-10.338-5.971-23.075 0-33.413l49.226-85.266c5.969-10.337 17-16.706 28.939-16.706h373.62c11.938 0 22.97 6.369 28.937 16.706l49.229 85.266c5.97 10.338 5.97 23.075 0 33.413l-49.229 85.266c-5.967 10.337-16.999 16.707-28.937 16.707" fill="#fff"/></g><g transform="translate(682.79 319.94)"><path d="m0 0-49.229-85.266c-6.28-10.875-17.982-17.632-30.542-17.632h-373.62c-12.559 0-24.262 6.757-30.542 17.632l-49.227 85.266c-6.281 10.878-6.281 24.39 0 35.267l49.227 85.266c6.28 10.877 17.983 17.633 30.542 17.633h373.62c12.56 0 24.262-6.756 30.542-17.633l49.229-85.266c6.278-10.877 6.278-24.389 0-35.267m1.604 36.195-49.227 85.266c-6.61 11.447-18.929 18.558-32.148 18.558h-373.62c-13.219 0-25.537-7.111-32.147-18.558l-49.227-85.268c-6.608-11.448-6.608-25.672 0-37.12l49.227-85.266c6.61-11.446 18.928-18.556 32.147-18.556h373.62c13.219 0 25.538 7.11 32.148 18.556l49.227 85.267c6.609 11.447 6.609 25.671 0 37.121" fill="#005734"/></g><g transform="translate(333.22 456.25)"><path d="m0 0h-103.82c-11.939 0-22.97-6.37-28.94-16.707l-49.225-85.266c-5.971-10.338-5.971-23.075 0-33.413l49.225-85.266c5.97-10.337 17.001-16.706 28.94-16.706h103.82c11.938 0 22.97 6.369 28.937 16.706l49.227 85.266c5.971 10.338 5.971 23.075 0 33.413l-49.227 85.266c-5.967 10.337-16.999 16.707-28.937 16.707" fill="#bb202f"/></g><g transform="translate(622.73 434.22)"><path d="m0 0c-4.054 7.019-9.222 16.458-28.505 16.458l-178.2 4.307v1.267h186.99c11.938 0 22.969-6.368 28.936-16.705l49.23-85.268c2.984-5.168 4.475-10.938 4.475-16.705 0-5.769-1.491-11.538-4.475-16.707l-49.23-85.266c-5.967-10.337-16.998-16.706-28.936-16.706h-186.99v1.265l178.2 4.308c19.283 0 24.451 9.44 28.505 16.458l49.229 85.268c2.026 3.509 3.038 7.444 3.038 11.38 0 3.934-1.012 7.869-3.038 11.378z" fill="#cb2529"/></g><g transform="translate(439.02 409.27)"><path d="m0 0c15.456 2.867 56.469 8.13 69.996 9.063 14.545 1.451 16.13-7.046 8.446-15.893-6.062-6.446-74.926-47.634-62.585-63.845-27.328 28.248 35.094 58.949 43.84 68.449 10.494 10.919-36.354 4.054-59.697 2.226" fill="#cc2429" fill-rule="evenodd"/></g><g transform="translate(454.87 338.6)"><path d="m 0,0 c 4.183,-6.465 51.38,10.148 71.278,26.904 1.508,1.267 9.589,7.493 8.305,9.712 C 52.069,22.537 10.849,11.6 5.227,17.778 2.813,15.053 -1.651,9.259 -1.468,4.093 -1.417,2.637 -0.926,1.284 0,0" fill="#8c1c1f" fill-rule="evenodd"/></g><g transform="translate(534.46 375.21)"><path d="m0 0c6.209-0.25 5.972-10.348-7.448-16.818-21.569-11.122-47.61-29.304-35.928-48.438-32.814 16.419 7.967 44.311 25.763 53.247 4.513 2.435 19.279 8.384 17.613 12.009" fill="#cc2429" fill-rule="evenodd"/></g><g transform="translate(604.03 433.97)"><path d="m0 0c-23.771-60.206-82.084-114.17-115.8-113.04-0.345-3.774 0.794-7.679 2.849-10.976 38.317-11.875 103.32 79.08 112.95 124.02" fill="#8c1c1f" fill-rule="evenodd"/></g><g transform="translate(572.38 423.37)"><path d="m0 0 1.809-0.961-0.504 1.527-1.845 0.904zm7.082-9.559c-0.252-1.062-0.623-1.639-0.978-1.968 1.102 0.668 1.675 1.604 1.838 2.684 0.197 1.279-0.079 2.764-0.538 4.297l-1.348 0.326c0.581-0.94 1.534-3.198 1.026-5.339m-1.682-2.392s0.728-0.055 1.938 0.143c0.797 0.137 1.622 0.484 1.867 0.624l5e-3 -6e-3c3.657 1.937 4.587 4.888 4.693 6.487 0.061 0.547 0.052 1.025 0.031 1.424 0 0.033-6e-3 0.113-0.013 0.174-2e-3 0.032-4e-3 0.08-9e-3 0.116-9e-3 0.139-0.018 0.249-0.038 0.365-0.013 0.089-0.03 0.166-0.042 0.246-0.014 0.102-0.042 0.225-0.064 0.313-0.103 0.56-0.206 0.882-0.272 1.046l-1.943-1.174c0.465-1.595 0.518-2.911 0.193-4.13-0.339-1.252-1.511-2.995-2.898-4.128l0.557 0.649 0.068 0.078 0.046 0.055 0.091 0.111 9e-3 0.015c0.922 1.118 1.586 2.159 1.893 3.286 0.317 1.189 0.257 2.478-0.213 4.055l-1.514 0.234c0.379-0.569 1.153-2.447 0.996-4.085-0.094-0.991-0.409-1.781-0.767-2.385 0.156 0.638 0.26 1.423 0.237 2.289-0.035 1.376-0.299 2.236-0.608 2.744l-1.97-1.116c0.466-1.563 0.71-3.033 0.511-4.357-0.205-1.357-1.197-2.608-2.784-3.073m4.031 8.706-1.399 0.399-1.879-1.146 1.371-0.331zm2.211 2.641-3e-3 1e-3 -1.808-1.122v-2e-3l1.61-0.252 1.228 0.742 0.593 0.359-1.608 0.281zm-5.678-3.465h-6e-3l3e-3 -4e-3zm-1.601-7.509 1.076 1.278-0.073 2.085-1.086-1.225zm0.803 3.504c-0.612-0.067-2.723 0.187-4.118 1.179-0.815 0.58-1.345 1.249-1.691 1.868 0.472-0.457 1.102-0.938 1.864-1.349 1.258-0.68 2.159-0.871 2.758-0.846l-0.073 2.288c-1.561 0.404-3.011 0.935-4.027 1.782-1.052 0.873-1.701 2.265-1.278 3.862-0.013-0.022-0.419-0.619-0.841-1.738-0.283-0.76-0.397-1.642-0.398-1.928h-6e-3c-0.142-4.122 1.959-6.4 3.295-7.29 0.446-0.331 0.865-0.558 1.223-0.74 0.027-0.016 0.103-0.054 0.153-0.077 0.035-0.016 0.077-0.038 0.111-0.05 0.124-0.058 0.224-0.106 0.335-0.15 0.084-0.036 0.159-0.057 0.237-0.086 0.098-0.038 0.212-0.076 0.303-0.103 0.619-0.217 0.963-0.282 1.114-0.294l-0.088 2.216c-1.339 0.351-2.52 0.914-3.474 1.78-0.963 0.874-1.69 2.053-2.12 3.627-0.09 0.437-0.224 0.878-0.227 1.327 0.113-0.456 0.244-0.882 0.383-1.277l5e-3 -0.01 7e-3 -0.021 8e-3 -0.021 7e-3 -0.021v-6e-3l9e-3 -0.016 8e-3 -0.019 6e-3 -0.023 8e-3 -0.018 1e-3 -2e-3 8e-3 -0.022c0.583-1.589 1.336-2.658 2.063-3.319 0.916-0.832 2.058-1.378 3.357-1.72zm-0.122 4.388c-1.092-0.034-3.569 0.256-5.195 1.785-0.717 0.677-1.046 1.235-1.181 1.687 0.045-1.199 0.558-2.08 1.368-2.751 0.985-0.823 2.411-1.338 3.954-1.74zm-0.825-3.444 1.086 1.05-0.056 2.248-1.105-1.062zm-2.145 6.131c0.229 0.541 1.516 2.267 3.092 2.984 0.983 0.444 1.891 0.553 2.629 0.525-0.666-0.176-1.455-0.489-2.256-0.977-1.192-0.733-1.813-1.397-2.097-1.922l2.014-0.986c0.133 0.151 0.273 0.302 0.418 0.448 0.916 0.92 2.103 1.748 3.327 2.115 1.248 0.374 2.535 0.275 3.636-0.669l0.043-0.038c-0.158 0.27-0.463 0.76-0.962 1.365-0.522 0.62-1.231 1.16-1.476 1.302l1e-3 3e-3c-1.795 1.12-3.464 1.492-4.863 1.492-1.334 0-2.418-0.341-3.124-0.688-0.508-0.22-0.915-0.465-1.253-0.684-0.029-0.013-0.098-0.06-0.141-0.091-0.032-0.025-0.072-0.049-0.1-0.069-0.112-0.08-0.206-0.142-0.299-0.221-0.072-0.052-0.13-0.106-0.193-0.157-0.082-0.065-0.173-0.145-0.24-0.21-0.454-0.384-0.682-0.64-0.786-0.776l1.953-0.956c0.979 0.959 2.06 1.675 3.281 2.049 1.246 0.38 2.634 0.403 4.204-0.036 0.418-0.144 0.869-0.256 1.258-0.481-2.39 0.706-4.187 0.65-5.39 0.282-1.187-0.361-2.239-1.063-3.2-2.005zm1.353 0.346 0.352-1.383 1.922-1.041-0.351 1.484zm2.505-2.336c0.533 0.972 2.014 2.918 4.125 3.551 0.934 0.276 1.581 0.281 2.04 0.178-0.888 0.494-1.868 0.501-2.824 0.217-1.187-0.357-2.336-1.162-3.226-2.055-0.157-0.162-0.307-0.324-0.448-0.486z" fill="#cc2429" fill-rule="evenodd"/></g><g transform="translate(456.7 290.68)"><path d="m0 0-6.947-17.286-4.577 11.693-6.459 5.593 9.179-23.459h3.663l8.321 20.706z" fill="#231e1e" fill-rule="evenodd"/></g><g transform="translate(471.81 271.1)"><path d="m0 0v15.867l-4.285 3.711v-23.459h16.076l-4.468 3.866z" fill="#231e1e" fill-rule="evenodd"/></g><g transform="translate(461.6 271.62)"><path d="m0 0c-1.216 0-2.197-0.982-2.197-2.196s0.981-2.199 2.197-2.199c1.215 0 2.196 0.985 2.196 2.199s-0.981 2.196-2.196 2.196" fill="#231e1e" fill-rule="evenodd"/></g><g transform="translate(502.63 286.88)"><path d="m0 0-4.389 3.798h-13.279v-19.904l4.103-3.555h13.565l-4.485 3.882h-8.911v6.411h13.125v0.233l-4.058 3.513h-9.067v5.622z" fill="#231e1e" fill-rule="evenodd"/></g><g transform="translate(536.42 279.84)"><path d="m0 0 4.442-3.847h2.273v-2.806c-2.563-2.503-6.47-3.019-9.596-1.263-3.124 1.756-4.72 5.359-3.917 8.853 0.802 3.491 3.883 6.042 7.46 6.258 0.238 0.013 0.461 0.122 0.618 0.304 0.157 0.181 0.234 0.416 0.211 0.654l-2.927 2.534c-5.443-1.233-9.318-6.056-9.345-11.638-0.027-5.58 3.531-10.377 8.963-11.664 1.901-0.442 3.876-0.442 5.779 0 2.824 0.704 5.295 2.411 6.951 4.805v7.81h-4.197z" fill="#231e1e" fill-rule="evenodd"/></g><g transform="translate(565.1 275.81)"><path d="m0 0c2e-3 -1.363-0.56-2.665-1.547-3.602-0.99-0.937-2.326-1.425-3.687-1.35-1.358-0.077-2.69 0.408-3.681 1.346-0.992 0.934-1.55 2.243-1.552 3.606v11.434l-3.979 3.441v-14.875c2e-3 -2.419 0.983-4.736 2.72-6.418 1.74-1.686 4.074-2.591 6.492-2.516 2.421-0.073 4.762 0.836 6.499 2.523 1.735 1.685 2.714 3.992 2.714 6.411v11.434l-3.979 3.441z" fill="#231e1e" fill-rule="evenodd"/></g><g transform="translate(590.5 286.88)"><path d="m0 0-4.389 3.798h-13.279v-19.904l4.105-3.555h13.563l-4.484 3.882h-8.91v6.411h13.123v0.233l-4.056 3.513h-9.067v5.622z" fill="#231e1e" fill-rule="evenodd"/></g><g transform="translate(600.88 290.68)"><path d="m0 0h-0.354l-4.317-3.734h4.671v-19.725h4.27v23.459z" fill="#231e1e" fill-rule="evenodd"/></g><g transform="translate(511.14 277.67)"><path d="m0 0 2.849 7.392 1.508-3.697 1.51-3.695zm4.849 13.017h-4.092l-7.974-20.692 3.196-2.767 2.597 6.744h8.798l0.407-0.994 6.641-5.75-5.768 14.137z" fill="#231e1e" fill-rule="evenodd"/></g><g transform="translate(209.69 434.22)"><path d="m0 0c4.053 7.019 9.221 16.458 28.504 16.458l178.2 4.307v1.267h-186.99c-11.939 0-22.969-6.368-28.937-16.705l-49.228-85.268c-2.984-5.168-4.476-10.938-4.476-16.705 0-5.769 1.492-11.538 4.476-16.707l49.228-85.266c5.968-10.337 16.998-16.706 28.937-16.706h186.99v1.265l-178.2 4.308c-19.283 0-24.451 9.44-28.504 16.458l-49.228 85.268c-2.028 3.509-3.04 7.444-3.04 11.38 0 3.934 1.012 7.869 3.04 11.378z" fill="#005734"/></g><g transform="translate(497.97 239.44)"><path d="m0 0v-3.335h-12.584c0.137 1.261 0.545 2.455 1.227 3.585 0.681 1.128 2.027 2.625 4.036 4.49 1.619 1.507 2.611 2.53 2.977 3.067 0.494 0.741 0.741 1.473 0.741 2.197 0 0.801-0.215 1.416-0.645 1.846-0.431 0.43-1.024 0.645-1.781 0.645-0.75 0-1.346-0.224-1.789-0.678-0.443-0.45-0.7-1.2-0.768-2.247l-3.576 0.357c0.212 1.977 0.881 3.394 2.006 4.255 1.124 0.86 2.529 1.29 4.217 1.29 1.847 0 3.299-0.498 4.356-1.494 1.056-0.998 1.583-2.237 1.583-3.718 0-0.844-0.151-1.648-0.452-2.408-0.303-0.764-0.782-1.562-1.439-2.397-0.433-0.554-1.218-1.349-2.351-2.389-1.132-1.039-1.849-1.728-2.152-2.069-0.302-0.341-0.547-0.674-0.734-0.997z" fill="#cf2027"/></g><g transform="translate(506.47 251.93)"><path d="m0 0c-0.435 0-0.823-0.139-1.163-0.414-0.341-0.277-0.605-0.774-0.793-1.49-0.247-0.929-0.369-2.492-0.369-4.688 0-2.198 0.109-3.709 0.331-4.529 0.222-0.823 0.5-1.37 0.838-1.642 0.336-0.272 0.721-0.41 1.156-0.41 0.434 0 0.82 0.139 1.161 0.416 0.341 0.278 0.606 0.773 0.794 1.488 0.247 0.92 0.369 2.479 0.369 4.677 0 2.196-0.109 3.707-0.331 4.529s-0.5 1.372-0.838 1.649c-0.336 0.275-0.721 0.414-1.155 0.414m0 2.977c1.813 0 3.232-0.647 4.254-1.942 1.218-1.532 1.827-4.075 1.827-7.627 0-3.545-0.613-6.09-1.84-7.639-1.013-1.279-2.428-1.918-4.241-1.918-1.824 0-3.292 0.7-4.409 2.102-1.115 1.401-1.673 3.898-1.673 7.493 0 3.527 0.613 6.065 1.84 7.615 1.013 1.277 2.428 1.916 4.242 1.916" fill="#cf2027"/></g><g transform="translate(527.08 239.44)"><path d="m0 0v-3.335h-12.584c0.137 1.261 0.544 2.455 1.227 3.585 0.681 1.128 2.027 2.625 4.036 4.49 1.618 1.507 2.611 2.53 2.977 3.067 0.494 0.741 0.74 1.473 0.74 2.197 0 0.801-0.214 1.416-0.644 1.846-0.431 0.43-1.024 0.645-1.781 0.645-0.75 0-1.346-0.224-1.789-0.678-0.443-0.45-0.7-1.2-0.768-2.247l-3.576 0.357c0.212 1.977 0.881 3.394 2.006 4.255 1.124 0.86 2.529 1.29 4.216 1.29 1.848 0 3.3-0.498 4.357-1.494 1.056-0.998 1.583-2.237 1.583-3.718 0-0.844-0.151-1.648-0.452-2.408-0.303-0.764-0.782-1.562-1.439-2.397-0.433-0.554-1.218-1.349-2.351-2.389-1.133-1.039-1.85-1.728-2.153-2.069-0.301-0.341-0.547-0.674-0.733-0.997z" fill="#cf2027"/></g><g transform="translate(541.63 239.44)"><path d="m0 0v-3.335h-12.584c0.137 1.261 0.545 2.455 1.227 3.585 0.681 1.128 2.027 2.625 4.036 4.49 1.619 1.507 2.611 2.53 2.977 3.067 0.494 0.741 0.74 1.473 0.74 2.197 0 0.801-0.214 1.416-0.644 1.846-0.431 0.43-1.024 0.645-1.781 0.645-0.75 0-1.346-0.224-1.789-0.678-0.443-0.45-0.7-1.2-0.768-2.247l-3.576 0.357c0.212 1.977 0.881 3.394 2.006 4.255 1.124 0.86 2.529 1.29 4.216 1.29 1.848 0 3.3-0.498 4.357-1.494 1.056-0.998 1.583-2.237 1.583-3.718 0-0.844-0.151-1.648-0.452-2.408-0.303-0.764-0.782-1.562-1.439-2.397-0.433-0.554-1.218-1.349-2.351-2.389-1.132-1.039-1.849-1.728-2.152-2.069-0.302-0.341-0.548-0.674-0.734-0.997z" fill="#cf2027"/></g><g transform="translate(277.63 431.45)"><path d="m0 0c-0.796-2.461-2.027-5.128-9.061-12.884-6.351-7.009-7.883-16.279-4.435-26.805 0.696-2.128 2.251-6.352 4.631-12.573-2.077 4.606-4.147 8.53-6.171 11.679-6.082 9.481-15.362 11.608-22.139 13.161-1.961 0.448-3.809 0.874-5.344 1.408-1.557 0.541-3.492 1.213-5.027 2.112-0.801 0.464-1.707 0.563-2.329 0.563-0.668 0-1.954-0.119-3.063-0.918-1.801-1.299-2.258-3.669-1.777-5.338 0.772-2.693 1.204-6.043 1.643-12.8 0.847-13.014 10.171-21.07 19.497-25.91-0.423 0.025-0.849 0.057-1.267 0.057-5.296 0-9.477-1.87-13.168-3.519-0.806-0.361-1.597-0.716-2.376-1.034-2.275-0.937-3.919-1.443-5.193-1.598-1.601-0.202-3.334-1.658-3.34-3.664 0-2.044 1.867-3.226 2.078-3.353 0.612-0.37 1.284-1.143 1.996-1.959l0.433-0.491c0.31-0.351 0.642-0.743 1.003-1.164 3.555-4.158 9.507-11.119 18.823-11.835 0.378-0.03 0.79-0.045 1.232-0.045 4.925 0 14.137 1.975 19.721 4.225 1.47 0.594 2.517 1.522 3.216 2.643 1.264-1.129 2.908-1.793 4.646-1.793 0.879 0 1.75 0.172 2.565 0.495 0.494-3.363 3.391-5.954 6.887-5.954 3.497 0 6.392 2.591 6.887 5.956 0.816-0.325 1.685-0.497 2.563-0.497 1.739 0 3.385 0.664 4.647 1.793 0.701-1.121 1.747-2.049 3.219-2.643 5.583-2.25 14.794-4.225 19.719-4.225 0.441 0 0.854 0.015 1.233 0.045 9.316 0.716 15.266 7.677 18.822 11.835 0.359 0.421 0.693 0.813 1.003 1.164l0.434 0.494c0.741 0.851 1.382 1.586 1.993 1.954 0.213 0.129 2.085 1.316 2.079 3.362-6e-3 2-1.738 3.456-3.355 3.659-1.258 0.153-2.903 0.659-5.177 1.596-0.777 0.318-1.571 0.673-2.376 1.034-3.692 1.649-7.873 3.519-13.169 3.519-0.418 0-0.844-0.032-1.266-0.057 9.327 4.84 18.649 12.896 19.497 25.91 0.439 6.757 0.871 10.107 1.643 12.8 0.482 1.672 0.023 4.044-1.777 5.337-1.11 0.8-2.397 0.919-3.064 0.919-0.621 0-1.528-0.099-2.335-0.568-1.525-0.891-3.463-1.566-5.02-2.107-1.533-0.534-3.383-0.96-5.345-1.408-7.151-1.64-16.055-3.68-22.139-13.161-1.808-2.819-3.653-6.254-5.505-10.232 1.64 4.312 3.289 8.768 4.063 11.126 1.586 4.843 4.33 17.15-4.44 26.807-6.981 7.688-8.22 10.349-9.035 12.808-0.563 1.701-2.084 2.842-3.788 2.842-1.696 0-3.144-1.085-3.692-2.768" fill="#ffe3a6" fill-rule="evenodd"/></g><g transform="translate(274.75 340.67)"><path d="m0 0 0.075-0.509c0.472-3.196 3.26-5.606 6.486-5.606 3.227 0 6.013 2.411 6.483 5.607l0.074 0.51 0.48-0.189c2.311-0.919 4.948-0.424 6.786 1.22l0.362 0.323 0.256-0.411c0.699-1.117 1.718-1.952 3.027-2.48 5.546-2.236 14.689-4.195 19.565-4.195 0.431 0 0.833 0.014 1.203 0.043 9.143 0.703 15.024 7.579 18.539 11.687 0.364 0.429 0.7 0.823 1.011 1.175l0.435 0.494c0.76 0.874 1.418 1.631 2.088 2.034 0.192 0.116 1.888 1.201 1.882 3.011-7e-3 1.78-1.562 3.076-3 3.256-1.302 0.159-2.979 0.675-5.28 1.623-0.782 0.32-1.577 0.677-2.388 1.039-3.659 1.635-7.797 3.484-13.002 3.484-0.333 0-0.671-0.021-1.007-0.042l-0.236-0.014-0.212 0.769c12.096 6.276 18.582 14.881 19.28 25.575 0.442 6.78 0.874 10.152 1.656 12.885 0.442 1.534 0.026 3.708-1.621 4.893-1.018 0.734-2.208 0.843-2.826 0.843-0.57 0-1.402-0.089-2.13-0.513-1.569-0.916-3.523-1.595-5.092-2.139-1.568-0.548-3.423-0.972-5.388-1.421-7.082-1.624-15.893-3.644-21.888-12.985-1.782-2.778-3.625-6.204-5.477-10.183l-0.751 0.317c1.119 2.945 3.135 8.304 4.056 11.108 1.564 4.775 4.271 16.909-4.355 26.406-7.03 7.743-8.288 10.448-9.118 12.955-0.509 1.532-1.875 2.561-3.402 2.561-1.516 0-2.813-0.975-3.305-2.485-0.811-2.506-2.06-5.217-9.145-13.033-6.248-6.893-7.752-16.023-4.35-26.404 0.699-2.137 2.255-6.361 4.624-12.554l-0.752-0.313c-2.078 4.606-4.145 8.517-6.143 11.625-5.992 9.342-15.179 11.448-21.888 12.985-1.874 0.429-3.814 0.872-5.385 1.421-1.569 0.544-3.522 1.22-5.099 2.145-0.724 0.419-1.555 0.507-2.124 0.507-0.619 0-1.81-0.109-2.824-0.841-1.651-1.19-2.066-3.363-1.624-4.894 0.783-2.732 1.216-6.104 1.658-12.886 0.697-10.694 7.182-19.299 19.277-25.575l-0.211-0.769-0.236 0.014c-0.338 0.021-0.674 0.042-1.007 0.042-5.21 0-9.349-1.851-13.002-3.484-0.81-0.363-1.603-0.719-2.388-1.04-2.303-0.947-3.987-1.465-5.297-1.624-1.43-0.18-2.976-1.477-2.981-3.26 0-1.821 1.687-2.888 1.88-3.003 0.659-0.398 1.343-1.182 2.065-2.009l0.459-0.522c0.266-0.301 0.55-0.633 0.854-0.988l0.153-0.18c3.514-4.11 9.396-10.99 18.545-11.693 0.368-0.029 0.769-0.043 1.2-0.043 4.877 0 14.022 1.959 19.568 4.195 1.309 0.529 2.326 1.363 3.024 2.48l0.256 0.411 0.361-0.323c1.842-1.647 4.476-2.139 6.788-1.222zm6.561-6.931c-3.462 0-6.475 2.468-7.205 5.816-2.319-0.749-4.894-0.271-6.807 1.24-0.775-1.073-1.832-1.884-3.15-2.417-5.627-2.266-14.912-4.254-19.874-4.254-0.454 0-0.876 0.016-1.263 0.046-9.487 0.729-15.506 7.77-19.103 11.976l-0.153 0.18c-0.3 0.351-0.581 0.68-0.844 0.979l-0.433 0.493c-0.709 0.81-1.351 1.546-1.901 1.878-0.232 0.14-2.274 1.433-2.274 3.703 4e-3 2.227 1.922 3.846 3.695 4.068 1.237 0.151 2.855 0.65 5.09 1.57 0.773 0.318 1.56 0.67 2.363 1.029 3.623 1.621 7.717 3.45 12.888 3.551-11.234 6.28-17.514 15.042-18.189 25.424-0.438 6.718-0.863 10.045-1.63 12.713-0.52 1.806-0.024 4.371 1.931 5.782 1.203 0.865 2.585 0.994 3.302 0.994 0.67 0 1.652-0.107 2.533-0.617 1.51-0.885 3.422-1.548 4.957-2.079 1.529-0.534 3.361-0.953 5.3-1.397 6.846-1.569 16.22-3.717 22.392-13.339 0.83-1.29 1.67-2.715 2.516-4.268-0.782 2.124-1.352 3.734-1.706 4.816-3.498 10.675-1.935 20.082 4.52 27.205 6.978 7.696 8.194 10.321 8.974 12.736h2e-3c0.602 1.853 2.203 3.05 4.079 3.05 1.878 0 3.556-1.254 4.176-3.121 0.799-2.416 2.024-5.037 8.949-12.663 8.912-9.814 6.133-22.296 4.524-27.207-0.368-1.124-0.911-2.654-1.502-4.273 0.745 1.344 1.484 2.587 2.216 3.725 6.172 9.62 15.164 11.682 22.387 13.339 1.946 0.444 3.779 0.863 5.305 1.396 1.535 0.533 3.449 1.197 4.949 2.074 0.886 0.515 1.87 0.623 2.541 0.623 0.717 0 2.098-0.129 3.302-0.996 1.955-1.405 2.45-3.972 1.93-5.781-0.765-2.67-1.191-5.996-1.628-12.712-0.678-10.382-6.957-19.144-18.191-25.424 5.166-0.101 9.257-1.928 12.878-3.546 0.813-0.364 1.603-0.716 2.375-1.034 2.232-0.92 3.842-1.417 5.071-1.568 1.781-0.222 3.708-1.839 3.714-4.062 6e-3 -2.21-1.894-3.48-2.274-3.712-0.562-0.338-1.181-1.049-1.897-1.873l-0.437-0.496c-0.308-0.35-0.641-0.74-0.997-1.159-3.602-4.211-9.622-11.249-19.102-11.977-0.388-0.03-0.812-0.046-1.266-0.046-4.959 0-14.244 1.988-19.871 4.254-1.318 0.532-2.375 1.344-3.151 2.417-1.912-1.509-4.489-1.991-6.81-1.239-0.728-3.348-3.741-5.817-7.201-5.817" fill="#fde4b2"/></g><g transform="translate(277.27 341.12)"><path d="m0 0c0 2.231 1.81 4.04 4.041 4.04 2.233 0 4.041-1.809 4.041-4.04 0-2.233-1.808-4.042-4.041-4.042-2.231 0-4.041 1.809-4.041 4.042" fill="#b91f24"/></g></g></g><g><path d="m227.76 405.18h-0.022c-0.456-3e-3 -0.971-0.108-1.326-0.364-0.696-0.502-0.855-1.533-0.678-2.153 0.904-3.145 1.328-6.907 1.752-13.419 1.063-16.318 17.164-24.35 28.993-27.959 2.188-0.666 7.272-0.935 10.191 2.54 2.918 3.475 1.827 8.573 1.154 10.187-2.118 5.08-4.775 10.732-7.689 15.271-7.084 11.041-18.728 10.859-25.982 13.384-1.869 0.65-3.823 1.345-5.538 2.349-0.172 0.099-0.486 0.162-0.839 0.164z" fill="url(#d)"/></g><g><path d="m228.36 355.94c-2.242-0.923-4.232-1.587-5.941-1.795-0.217-0.027-0.777-0.341-0.778-0.757 0-0.317 0.505-0.75 0.664-0.846 1.163-0.703 2.078-1.853 3.11-3.017 3.169-3.583 8.842-11.325 17.854-12.019 4.355-0.336 14.155 1.768 19.629 3.977 3.358 1.354 2.632 5.465 1.919 7.425-1.417 3.911-6.416 7.138-15.132 10.152-2.503 0.866-4.787 1.214-6.895 1.214-5.787 0-10.264-2.622-14.43-4.334" fill="url(#c)"/></g><g><path d="m334.87 405.18h-0.017c-0.353-2e-3 -0.665-0.065-0.837-0.164-1.715-1.004-3.672-1.699-5.538-2.349-7.255-2.525-18.9-2.343-25.981-13.384-2.914-4.539-5.572-10.191-7.691-15.271-0.673-1.614-1.765-6.712 1.154-10.187s8.005-3.206 10.192-2.54c11.828 3.609 27.93 11.641 28.992 27.959 0.424 6.512 0.847 10.274 1.752 13.419 0.177 0.62 0.021 1.651-0.678 2.153-0.356 0.256-0.87 0.361-1.326 0.364z" fill="url(#b)"/></g><path d="m312.94 359.06c-8.715-3.014-13.712-6.241-15.132-10.152-0.711-1.96-1.438-6.071 1.919-7.425 5.473-2.209 15.275-4.313 19.628-3.977 9.014 0.694 14.687 8.436 17.858 12.019 1.03 1.164 1.943 2.314 3.108 3.017 0.159 0.096 0.665 0.529 0.664 0.846-1e-3 0.416-0.56 0.73-0.778 0.757-1.71 0.208-3.699 0.872-5.941 1.795-4.165 1.712-8.641 4.334-14.43 4.334-2.108 0-4.391-0.348-6.896-1.214" fill="url(#a)"/><path d="m280.41 430.54c-1.043-3.229-2.783-6.346-9.673-13.95-7.361-8.121-5.869-17.683-3.825-23.925 0.927-2.821 3.31-9.139 5.652-15.215 0.533-1.391 2.177-5.516 8.742-5.516 6.566 0 8.403 4.347 8.961 5.783 2.311 5.989 4.619 12.169 5.53 14.948 2.043 6.242 3.236 16.151-3.824 23.925-6.835 7.528-8.6 10.686-9.649 13.859-0.181 0.55-0.598 0.832-1.007 0.832-0.377 0-0.744-0.243-0.907-0.741" fill="url(#e)"/><g clip-path="url(#h)"><g transform="translate(285.35 362.96)"><path d="m0 0c0-2.231-1.81-4.041-4.041-4.041s-4.041 1.81-4.041 4.041c0 2.232 1.81 4.042 4.041 4.042s4.041-1.81 4.041-4.042" fill="#b91f24"/></g><g transform="translate(274.57 367)"><path d="m0 0c0-1.117-0.907-2.021-2.022-2.021-1.116 0-2.021 0.904-2.021 2.021 0 1.114 0.905 2.02 2.021 2.02 1.115 0 2.022-0.906 2.022-2.02" fill="#b91f24"/></g><g transform="translate(266.12 355.91)"><path d="m0 0c0-1.115-0.902-2.02-2.019-2.02-1.115 0-2.019 0.905-2.019 2.02 0 1.118 0.904 2.021 2.019 2.021 1.117 0 2.019-0.903 2.019-2.021" fill="#b91f24"/></g><g transform="translate(288.05 367)"><path d="m0 0c0-1.117 0.906-2.021 2.022-2.021 1.115 0 2.021 0.904 2.021 2.021 0 1.114-0.906 2.02-2.021 2.02-1.116 0-2.022-0.906-2.022-2.02" fill="#b91f24"/></g><g transform="translate(296.5 355.91)"><path d="m0 0c0-1.115 0.902-2.02 2.019-2.02 1.116 0 2.019 0.905 2.019 2.02 0 1.118-0.903 2.021-2.019 2.021-1.117 0-2.019-0.903-2.019-2.021" fill="#b91f24"/></g><g transform="translate(285.35 352.04)"><path d="m0 0c0-2.23-1.81-4.041-4.041-4.041s-4.041 1.811-4.041 4.041c0 2.232 1.81 4.042 4.041 4.042s4.041-1.81 4.041-4.042" fill="#b91f24"/></g><g transform="translate(273.88 361)"><path d="m0 0c1.935-1.114 2.595-3.586 1.479-5.519-1.115-1.934-3.586-2.595-5.519-1.48-1.936 1.115-2.597 3.587-1.479 5.52 1.114 1.934 3.586 2.596 5.519 1.479" fill="#b91f24"/></g><g transform="translate(269.84 350.08)"><path d="m0 0c1.933 1.115 4.406 0.453 5.519-1.481 1.116-1.932 0.456-4.404-1.479-5.52-1.933-1.115-4.405-0.454-5.518 1.48-1.119 1.933-0.458 4.404 1.478 5.521" fill="#b91f24"/></g><g transform="translate(288.74 343.08)"><path d="M 0,0 C -1.934,1.115 -2.595,3.587 -1.477,5.52 -0.361,7.453 2.107,8.115 4.04,7 5.977,5.883 6.638,3.412 5.521,1.479 4.406,-0.454 1.934,-1.116 0,0" fill="#b91f24"/></g><g transform="translate(292.78 354)"><path d="m0 0c-1.93-1.117-4.401-0.455-5.517 1.479-1.118 1.932-0.458 4.405 1.477 5.519 1.934 1.117 4.406 0.456 5.519-1.479 1.118-1.932 0.456-4.404-1.479-5.519" fill="#b91f24"/></g><g transform="translate(238.36 283.02)"><path d="m0 0v9.323h1.721v-3.724h0.644l3.13 3.724h2.158l-3.598-4.111 3.729-5.212h-2.188l-2.729 3.963h-1.146v-3.963z" fill="#fff"/></g><g transform="translate(254.35 287.69)"><path d="m0 0c0-0.881 0.314-1.641 0.939-2.273 0.62-0.634 1.376-0.95 2.254-0.95 0.88 0 1.635 0.316 2.26 0.95 0.621 0.632 0.936 1.392 0.936 2.273 0 0.88-0.315 1.64-0.936 2.268-0.625 0.637-1.38 0.951-2.26 0.951-0.878 0-1.634-0.314-2.254-0.951-0.625-0.628-0.939-1.388-0.939-2.268m-1.812 0c0 1.384 0.487 2.54 1.458 3.465 0.967 0.93 2.153 1.389 3.547 1.389 1.396 0 2.578-0.459 3.548-1.389 0.973-0.925 1.454-2.081 1.454-3.465 0-1.386-0.481-2.545-1.454-3.467-0.97-0.929-2.152-1.391-3.548-1.391-1.394 0-2.58 0.462-3.547 1.391-0.971 0.922-1.458 2.081-1.458 3.467" fill="#fff"/></g><g transform="translate(277.8 282.83)"><path d="m0 0-6.016 5.912v-5.718h-1.728v9.512l6.019-5.909v5.72h1.725z" fill="#fff"/></g><g transform="translate(287.82 283.02)"><path d="m0 0v7.694h-2.732v1.629h7.192v-1.629h-2.731v-7.694z" fill="#fff"/></g><g transform="translate(299.57 286.83)"><path d="m0 0v5.52h1.72v-5.15c0-0.761 0.21-1.4 0.626-1.915 0.458-0.548 1.054-0.816 1.8-0.816 0.749 0 1.349 0.268 1.791 0.816 0.418 0.503 0.625 1.146 0.625 1.915v5.15h1.724v-5.52c0-1.169-0.394-2.126-1.186-2.875-0.794-0.746-1.777-1.122-2.954-1.122-1.169 0-2.154 0.376-2.948 1.13-0.802 0.751-1.198 1.708-1.198 2.867" fill="#fff"/></g><g transform="translate(315.96 283.02)"><path d="m0 0v9.52l4.145-4.195 4.147 4.195v-9.52h-1.723v5.759l-2.424-2.505-2.421 2.505v-5.759z" fill="#fff"/></g><g transform="translate(193.29 301.88)"><path d="m0 0c-1.158 0-2.134 0.198-2.926 0.594-0.254 0.126-0.381 0.385-0.381 0.781 0 0.533 0.014 1.146 0.04 1.829l0.057 1.161c0.027 0.4 0.11 0.602 0.248 0.602 0.13 0 0.193-0.13 0.193-0.389 0-0.305 0.064-0.697 0.188-1.173 0.206-0.788 0.588-1.379 1.135-1.775 0.467-0.358 1.046-0.533 1.73-0.533 0.842 0 1.514 0.282 2.018 0.845 0.444 0.507 0.665 1.094 0.665 1.764 0 0.625-0.12 1.192-0.361 1.695-0.293 0.62-0.829 1.272-1.607 1.965l-0.918 0.816c-1.072 0.959-1.837 1.873-2.302 2.745-0.444 0.823-0.665 1.718-0.665 2.678 0 1.265 0.421 2.297 1.263 3.1 0.868 0.811 1.991 1.219 3.367 1.219 0.574 0 1.116-0.046 1.624-0.137 0.203-0.035 0.394-0.077 0.578-0.122l0.461-0.133c0.187-0.046 0.283-0.137 0.283-0.279l-0.04-0.815c-0.013-0.247-0.019-0.506-0.019-0.781-0.014-0.35-0.021-0.731-0.021-1.138 0-0.461-0.073-0.693-0.223-0.693-0.131 0-0.198 0.137-0.198 0.415l-0.02 0.232c-0.013 0.122-0.036 0.248-0.076 0.381-0.097 0.335-0.238 0.632-0.421 0.892l-0.284 0.369c-0.13 0.133-0.278 0.255-0.441 0.369-0.397 0.259-0.885 0.389-1.467 0.389-1.586 0-2.377-0.785-2.377-2.354 0-0.537 0.146-1.04 0.44-1.516 0.304-0.483 0.865-1.078 1.684-1.775l0.558-0.479c2.191-1.874 3.286-3.817 3.286-5.824 0-0.754-0.134-1.447-0.4-2.087-0.321-0.762-0.812-1.395-1.481-1.897-0.467-0.335-0.989-0.579-1.562-0.727-0.498-0.141-1.039-0.214-1.628-0.214m10.641 6.285c-0.081 0-0.141-0.061-0.189-0.18l-1.075-3.267c-0.203-0.567-0.304-1.033-0.304-1.398 0-0.468 0.268-0.701 0.802-0.701h0.304c0.197 0 0.294-0.064 0.294-0.19 0-0.149-0.11-0.225-0.334-0.225l-2.446 0.069c-0.026-0.016-0.066-0.023-0.117-0.023h-0.45c-0.575-0.031-1.065-0.046-1.48-0.046-0.253 0-0.381 0.076-0.381 0.225 0 0.126 0.084 0.19 0.244 0.19 0.197 0 0.404 0.015 0.618 0.046 0.431 0.057 0.778 0.278 1.049 0.655 0.207 0.278 0.425 0.743 0.655 1.398l5.03 14.347c0.228 0.609 0.417 0.914 0.569 0.914 0.143 0 0.306-0.24 0.497-0.723 0.103-0.275 0.371-1.025 0.802-2.244l2.925-8.345c0.535-1.535 0.95-2.689 1.243-3.469 0.334-0.918 0.665-1.57 0.999-1.966 0.137-0.171 0.278-0.301 0.42-0.392 0.091-0.057 0.208-0.103 0.345-0.133 0.268-0.057 0.548-0.088 0.842-0.088 0.174 0 0.264-0.064 0.264-0.19 0-0.149-0.311-0.225-0.932-0.225l-3.905 0.046-0.321 0.045c-0.107 0.016-0.157 0.061-0.157 0.134 0 0.126 0.091 0.198 0.275 0.213 0.083 0.026 0.146 0.088 0.186 0.179 0.037 0.102 0.037 0.217 0 0.343l-1.606 4.844c-0.04 0.103-0.104 0.157-0.195 0.157zm4.088 1.15c0.093 0 0.124 0.042 0.1 0.133l-1.801 5.644c-0.033 0.134-0.07 0.203-0.11 0.203-0.05 0-0.09-0.069-0.117-0.203l-1.841-5.621c-0.022-0.107 0-0.156 0.081-0.156zm-1.046 15.376c0.037 0 0.16-0.084 0.361-0.248l0.401-0.347c0.19-0.182 0.437-0.4 0.744-0.644l1.243-1.073c0.184-0.149 0.274-0.252 0.274-0.313 0-0.08-0.033-0.16-0.097-0.232l-0.578-0.659c-0.096-0.11-0.187-0.168-0.263-0.168-0.054 0-0.155 0.084-0.304 0.255-0.157 0.202-0.472 0.522-0.939 0.96-0.411 0.382-0.685 0.621-0.822 0.728-0.094 0.095-0.177 0.144-0.258 0.144-0.069 0-0.17-0.041-0.299-0.122-0.308-0.194-0.659-0.445-1.049-0.75-0.438-0.35-0.796-0.662-1.076-0.936-0.177-0.187-0.311-0.279-0.401-0.279-0.124 0-0.187 0.077-0.187 0.233 0 0.061 0.063 0.175 0.187 0.347l1.299 1.416c0.308 0.335 0.589 0.629 0.842 0.884 0.267 0.289 0.434 0.468 0.501 0.533 0.177 0.179 0.314 0.271 0.421 0.271m10.91-5.302c0.066 0.396 0.18 0.59 0.344 0.59 0.157 0 0.334-0.232 0.538-0.701l5.467-12.888 5.453 13.044c0.164 0.366 0.31 0.545 0.441 0.545 0.19 0 0.31-0.232 0.363-0.701l1.818-14.126c0.176-1.367 0.507-2.141 0.989-2.312 0.257-0.087 0.504-0.148 0.744-0.175l0.274-0.046h0.224c0.217 0 0.324-0.057 0.324-0.168 0-0.163-0.176-0.247-0.528-0.247-0.334 0-0.972 0.015-1.917 0.046-1.072 0.03-1.784 0.061-2.145 0.091-0.227 0.015-0.383 0.042-0.47 0.088-0.077 0.03-0.117 0.087-0.117 0.167 0 0.088 0.076 0.172 0.226 0.244 0.145 0.061 0.174 0.388 0.098 0.982l-1.203 10.056h-0.079l-4.374-10.368c-0.237-0.563-0.397-0.918-0.481-1.059-0.076-0.149-0.163-0.224-0.254-0.224-0.11 0-0.347 0.38-0.704 1.139-0.15 0.305-0.325 0.697-0.519 1.173l-1.389 3.077c-0.21 0.476-0.344 0.788-0.401 0.937l-2.084 5.077h-0.08l-1.036-9.091c-0.04-0.419-0.06-0.777-0.06-1.082 0-0.381 0.201-0.624 0.597-0.727 0.305-0.073 0.585-0.111 0.842-0.111 0.201 0 0.305-0.057 0.305-0.168 0-0.163-0.16-0.247-0.481-0.247l-2.485 0.069c-0.074-0.016-0.154-0.023-0.244-0.023l-1.363-0.046c-0.242 0-0.361 0.084-0.361 0.247 0 0.111 0.107 0.168 0.323 0.168 0.195 0 0.395 0.023 0.595 0.065 0.255 0.061 0.451 0.282 0.588 0.658 0.054 0.157 0.098 0.339 0.138 0.549 0.04 0.172 0.073 0.37 0.096 0.602zm26.296-14.081c0.04-1.52 0.274-2.361 0.705-2.533 0.266-0.103 0.614-0.156 1.038-0.156 0.227 0 0.341-0.064 0.341-0.19 0-0.149-0.151-0.225-0.457-0.225h-0.882l-1.126 0.046c-0.04 0-0.077 7e-3 -0.117 0.023l-1.126-0.023c-0.515-0.031-0.982-0.046-1.4-0.046-0.293 0-0.441 0.076-0.441 0.225 0 0.126 0.107 0.19 0.324 0.19 0.371 0 0.672 0.038 0.899 0.111 0.401 0.132 0.605 1.077 0.618 2.833l0.187 13.525c0 0.521 0.084 0.78 0.254 0.78 0.098 0 0.204-0.064 0.324-0.201 0.05-0.05 0.12-0.13 0.203-0.233l2.32-2.81 6.694-7.835 0.323-0.411c0.014 0 0.027-0.015 0.04-0.046 0.014 0 0.021-8e-3 0.021-0.023 0.01 0 0.016-7e-3 0.016-0.023 0.041-0.03 0.067-0.061 0.081-0.098 0.07-0.061 0.126-0.119 0.167-0.18l1.182-1.394h0.097l-0.204 10.265c-0.013 1.154-0.238 1.835-0.675 2.053-0.137 0.061-0.316 0.095-0.538 0.11-0.087 0.015-0.18 0.023-0.283 0.023h-0.245c-0.209 0-0.313 0.072-0.313 0.213 0 0.134 0.173 0.202 0.518 0.202 0.397 0 0.879-7e-3 1.439-0.023 0.05-0.015 0.107-0.023 0.164-0.023l1.079-0.022c0.027 0.015 0.057 0.022 0.097 0.022h0.106c0.094 0 0.171 8e-3 0.238 0.023 0.454 0.016 0.875 0.023 1.262 0.023 0.304 0 0.458-0.068 0.458-0.202 0-0.141-0.117-0.213-0.351-0.213-0.243 0-0.444-0.023-0.608-0.065-0.481-0.148-0.731-0.796-0.745-1.942l-0.214-14.416c0-0.476-0.087-0.716-0.263-0.716-0.158 0-0.381 0.168-0.675 0.503-0.301 0.32-0.689 0.754-1.166 1.306l-4.756 5.412c-0.502 0.564-1.043 1.188-1.624 1.874l-3.14 3.893h-0.06zm30.016-1.573c0-0.422-0.083-0.701-0.254-0.827-0.6-0.365-1.376-0.628-2.328-0.792-0.791-0.156-1.626-0.236-2.505-0.236-2.656 0-4.813 0.712-6.47 2.133-0.882 0.743-1.557 1.664-2.025 2.757-0.51 1.189-0.764 2.548-0.764 4.072 0 1.718 0.357 3.264 1.065 4.643 0.615 1.204 1.42 2.148 2.419 2.833 0.868 0.595 1.797 1.006 2.789 1.227 0.417 0.099 0.858 0.168 1.322 0.213 0.378 0.031 0.806 0.046 1.28 0.046 0.601 0 1.316-0.046 2.144-0.137 0.646-0.096 1.116-0.172 1.41-0.233 0.267-0.06 0.528-0.11 0.782-0.156 0.334-0.045 0.601-0.076 0.801-0.091 0.108-0.019 0.184-0.054 0.238-0.099 0.026-0.031 0.037-0.088 0.037-0.179l-0.037-0.545c-0.013-0.114-0.021-0.228-0.021-0.347-0.026-0.319-0.046-0.685-0.059-1.092-0.013-0.522-0.017-1.109-0.017-1.764 0-0.32-0.077-0.48-0.228-0.48-0.103 0-0.17 0.099-0.193 0.302l-0.06 0.434c-0.027 0.163-0.064 0.323-0.107 0.479-0.117 0.366-0.291 0.693-0.521 0.983-0.371 0.438-0.906 0.826-1.604 1.162-0.882 0.407-1.833 0.612-2.859 0.612-0.351 0-0.648-0.015-0.888-0.045-0.348-0.031-0.672-0.08-0.98-0.156-0.774-0.217-1.475-0.621-2.104-1.215-0.588-0.56-1.035-1.272-1.34-2.145-0.333-0.944-0.5-2.094-0.5-3.446 0-2.499 0.634-4.548 1.901-6.148 1.295-1.63 2.986-2.444 5.067-2.444h0.421c0.164 0 0.31 7e-3 0.441 0.022 0.351 0.046 0.631 0.118 0.841 0.225 0.254 0.141 0.381 0.423 0.381 0.845v3.683c0 0.469-7e-3 0.857-0.02 1.162-0.013 0.727-0.297 1.161-0.859 1.303-0.156 0.045-0.417 0.068-0.784 0.068-0.194 0-0.294 0.061-0.294 0.179 0 0.156 0.14 0.233 0.421 0.233l3.447-0.065c0.117 0.015 0.32 0.03 0.614 0.046l1.186 0.019c0.267 0 0.401-0.077 0.401-0.233 0-0.118-0.087-0.179-0.254-0.179-0.127 0-0.306-0.023-0.55-0.068-0.496-0.103-0.75-0.537-0.762-1.303-0.014-0.305-0.021-0.701-0.021-1.185zm10.991-1.855c-1.376 0-2.606 0.278-3.682 0.827-0.979 0.499-1.814 1.215-2.505 2.144-0.631 0.826-1.109 1.786-1.43 2.88-0.303 1.008-0.458 2.048-0.458 3.111 0 1.036 0.148 2.045 0.442 3.036 0.331 1.1 0.815 2.067 1.446 2.901 0.705 0.93 1.56 1.654 2.565 2.176 1.122 0.563 2.395 0.849 3.825 0.849 2.485 0 4.457-0.774 5.913-2.312 1.453-1.539 2.181-3.618 2.181-6.238 0-2.686-0.748-4.902-2.242-6.65-1.539-1.813-3.557-2.724-6.055-2.724m0.841 1.15c0.454 0 0.899 0.077 1.329 0.225 0.576 0.202 1.08 0.53 1.517 0.983 0.548 0.563 0.976 1.31 1.283 2.24 0.344 1.081 0.518 2.387 0.518 3.93 0 2.498-0.568 4.524-1.704 6.078-1.096 1.482-2.485 2.221-4.168 2.221-0.625 0-1.206-0.106-1.741-0.324-0.615-0.244-1.143-0.62-1.587-1.123-0.501-0.575-0.885-1.303-1.153-2.19-0.294-0.987-0.44-2.164-0.44-3.523 0-2.45 0.548-4.457 1.643-6.026 1.136-1.661 2.636-2.491 4.503-2.491m-1.744-3.839c0-0.327 0.097-0.598 0.295-0.819 0.196-0.22 0.431-0.327 0.704-0.327 0.287 0 0.531 0.107 0.736 0.327 0.2 0.221 0.303 0.492 0.303 0.819 0 0.312-0.103 0.583-0.31 0.804-0.204 0.224-0.449 0.335-0.729 0.335-0.26 0-0.494-0.111-0.694-0.335-0.204-0.221-0.305-0.492-0.305-0.804m19.181 2.689c-1.429 0-2.692 0.19-3.787 0.571-1.173 0.416-2.202 1.056-3.083 1.92-0.907 0.914-1.568 2.004-1.986 3.268-0.334 1.059-0.501 2.216-0.501 3.481 0 0.438 0.035 0.888 0.098 1.341 0.086 0.548 0.207 1.093 0.364 1.63 0.177 0.594 0.41 1.154 0.704 1.684 0.331 0.593 0.729 1.13 1.183 1.606 0.758 0.789 1.62 1.379 2.586 1.775 1.068 0.431 2.318 0.648 3.748 0.648 0.574 0 1.103-0.023 1.583-0.069 0.347-0.03 0.788-0.084 1.322-0.167l0.538-0.088 0.999-0.224 0.468-0.069c0.197-0.019 0.294-0.115 0.294-0.278l-0.037-0.388c-0.026-0.279-0.047-0.568-0.06-0.873-0.013-0.163-0.02-0.377-0.02-0.636l-0.02-1.348c0-0.218-6e-3 -0.377-0.016-0.48-0.028-0.35-0.111-0.525-0.248-0.525-0.13 0-0.194 0.167-0.194 0.502-0.026 0.811-0.287 1.508-0.785 2.099-0.774 0.944-2.131 1.416-4.068 1.416-1.608 0-2.863-0.472-3.769-1.416-0.68-0.716-1.165-1.611-1.459-2.689-0.255-0.918-0.381-1.992-0.381-3.226 0-1.296 0.197-2.48 0.598-3.562 0.377-0.978 0.892-1.827 1.544-2.544 1.242-1.352 2.632-2.029 4.171-2.029 1.788 0 3.011 0.426 3.668 1.283 0.348 0.438 0.571 0.941 0.675 1.509 0.053 0.304 0.14 0.456 0.264 0.456 0.121 0 0.177-0.118 0.177-0.346 0-0.164-0.047-0.606-0.137-1.33-0.103-0.788-0.204-1.356-0.304-1.706-0.076-0.32-0.25-0.545-0.518-0.67-0.37-0.164-0.912-0.294-1.623-0.389-0.628-0.091-1.289-0.137-1.988-0.137m16.382 6.955c0-3.005 0.14-4.647 0.421-4.921 0.169-0.179 0.42-0.305 0.754-0.381 0.365-0.08 0.919-0.122 1.664-0.122 0.645 0 1.109 0.034 1.389 0.099 0.411 0.092 0.732 0.275 0.959 0.549 0.294 0.362 0.468 0.822 0.518 1.371 0.027 0.224 0.103 0.335 0.227 0.335 0.104 0 0.158-0.125 0.158-0.381 0-0.183-0.027-0.575-0.081-1.169l-0.097-0.804c-0.04-0.289-0.08-0.51-0.127-0.658-0.067-0.259-0.156-0.427-0.274-0.503-0.15-0.073-0.481-0.111-0.989-0.111-0.601 0-1.232 8e-3 -1.896 0.023l-1.491 0.042c-0.891 0.046-1.707 0.069-2.445 0.069h-0.481c-0.227 0-0.445-8e-3 -0.655-0.023l-1.389-0.046c-0.268 0-0.401 0.076-0.401 0.225 0 0.126 0.107 0.19 0.324 0.19 0.241 0 0.481 0.031 0.721 0.088 0.294 0.061 0.488 0.48 0.578 1.26 0.04 0.427 0.071 1.093 0.09 2.011 0.01 0.362 0.017 0.816 0.017 1.348v8.974l-0.046 1.393c-0.041 0.736-0.328 1.17-0.862 1.307-0.158 0.042-0.374 0.065-0.656 0.065-0.229 0-0.343 0.072-0.343 0.213 0 0.134 0.147 0.202 0.44 0.202l3.268-0.068c0.093 0.015 0.207 0.022 0.343 0.022l1.862 0.046c0.28 0 0.421-0.068 0.421-0.202 0-0.141-0.124-0.213-0.365-0.213-0.28 0-0.541-0.023-0.781-0.065-0.451-0.091-0.695-0.525-0.735-1.307l-0.04-1.393zm9.61 7.465-0.037 1.393c-0.04 0.751-0.267 1.177-0.685 1.284-0.197 0.058-0.434 0.088-0.715 0.088-0.216 0-0.323 0.08-0.323 0.236 0 0.119 0.159 0.179 0.481 0.179l3.09-0.068c0.08 0.015 0.183 0.022 0.314 0.022l1.643 0.046c0.281 0 0.42-0.06 0.42-0.179 0-0.156-0.106-0.236-0.32-0.236-0.157 0-0.357-0.023-0.597-0.065-0.458-0.091-0.706-0.525-0.746-1.307l-0.036-1.393v-9.05c0-0.544 7e-3 -1.005 0.017-1.386 0-0.914 0.019-1.596 0.059-2.042 0.074-0.67 0.341-1.039 0.802-1.115 0.381-0.057 0.722-0.088 1.029-0.088 0.213 0 0.324-0.064 0.324-0.19 0-0.149-0.13-0.225-0.384-0.225l-2.426 0.046c-0.066 0-0.127 7e-3 -0.186 0.023l-3.043-0.069c-0.268 0-0.402 0.076-0.402 0.225 0 0.126 0.108 0.19 0.325 0.19 0.24 0 0.481 0.031 0.721 0.088 0.321 0.076 0.515 0.453 0.578 1.139 0.04 0.43 0.067 1.104 0.08 2.018 0.013 0.381 0.017 0.842 0.017 1.386zm10.179-10.992c0.04-1.52 0.273-2.361 0.704-2.533 0.267-0.103 0.614-0.156 1.039-0.156 0.227 0 0.341-0.064 0.341-0.19 0-0.149-0.151-0.225-0.458-0.225h-0.882l-1.126 0.046c-0.039 0-0.076 7e-3 -0.116 0.023l-1.126-0.023c-0.515-0.031-0.982-0.046-1.4-0.046-0.294 0-0.441 0.076-0.441 0.225 0 0.126 0.107 0.19 0.324 0.19 0.371 0 0.672 0.038 0.899 0.111 0.401 0.132 0.604 1.077 0.618 2.833l0.187 13.525c0 0.521 0.083 0.78 0.254 0.78 0.097 0 0.204-0.064 0.323-0.201 0.051-0.05 0.121-0.13 0.204-0.233l2.319-2.81 6.694-7.835 0.324-0.411c0.013 0 0.027-0.015 0.039-0.046 0.014 0 0.021-8e-3 0.021-0.023 0.01 0 0.017-7e-3 0.017-0.023 0.04-0.03 0.067-0.061 0.08-0.098 0.07-0.061 0.128-0.119 0.167-0.18l1.182-1.394h0.097l-0.203 10.265c-0.014 1.154-0.238 1.835-0.675 2.053-0.137 0.061-0.317 0.095-0.538 0.11-0.087 0.015-0.181 0.023-0.284 0.023h-0.243c-0.211 0-0.315 0.072-0.315 0.213 0 0.134 0.174 0.202 0.519 0.202 0.396 0 0.878-7e-3 1.438-0.023 0.051-0.015 0.108-0.023 0.164-0.023l1.079-0.022c0.027 0.015 0.058 0.022 0.097 0.022h0.107c0.094 0 0.17 8e-3 0.237 0.023 0.455 0.016 0.876 0.023 1.263 0.023 0.304 0 0.457-0.068 0.457-0.202 0-0.141-0.116-0.213-0.35-0.213-0.243 0-0.445-0.023-0.608-0.065-0.481-0.148-0.732-0.796-0.745-1.942l-0.214-14.416c0-0.476-0.086-0.716-0.264-0.716-0.156 0-0.38 0.168-0.674 0.503-0.301 0.32-0.689 0.754-1.167 1.306l-4.756 5.412c-0.501 0.564-1.042 1.188-1.623 1.874l-3.141 3.893h-0.059zm28.139 6.905c0.083 0 0.126 0.054 0.126 0.156v3.931l-0.039 1.393c-0.041 0.736-0.328 1.17-0.862 1.307-0.164 0.042-0.424 0.065-0.782 0.065-0.23 0-0.344 0.072-0.344 0.213 0 0.134 0.141 0.202 0.421 0.202l3.367-0.068c0.091 0.015 0.2 0.022 0.324 0.022l1.721 0.046c0.28 0 0.42-0.068 0.42-0.202 0-0.141-0.12-0.213-0.36-0.213-0.151 0-0.344-0.023-0.579-0.065-0.457-0.091-0.704-0.525-0.745-1.307l-0.036-1.393v-8.974c0-0.532 7e-3 -0.986 0.017-1.348 0.013-0.918 0.04-1.592 0.08-2.03 0.063-0.769 0.327-1.18 0.782-1.241 0.374-0.057 0.711-0.088 1.019-0.088 0.214 0 0.324-0.064 0.324-0.19 0-0.149-0.134-0.225-0.401-0.225l-2.428 0.046c-0.054 0-0.105 7e-3 -0.158 0.023l-3.043-0.069c-0.281 0-0.42 0.076-0.42 0.225 0 0.126 0.102 0.19 0.313 0.19 0.24 0 0.482 0.031 0.725 0.088 0.291 0.061 0.488 0.48 0.585 1.26 0.04 0.427 0.066 1.093 0.08 2.011 0.013 0.362 0.019 0.816 0.019 1.348v3.516c0 0.087-0.043 0.133-0.126 0.133h-7.653c-0.08 0-0.12-0.046-0.12-0.133v-3.516c0-0.532 6e-3 -0.986 0.019-1.348 0.014-0.918 0.041-1.592 0.082-2.03 0.062-0.769 0.324-1.18 0.781-1.241 0.371-0.057 0.711-0.088 1.018-0.088 0.214 0 0.321-0.064 0.321-0.19 0-0.149-0.133-0.225-0.401-0.225l-2.426 0.046c-0.052 0-0.103 7e-3 -0.156 0.023l-3.062-0.069c-0.269 0-0.402 0.076-0.402 0.225 0 0.126 0.104 0.19 0.314 0.19 0.241 0 0.481 0.031 0.722 0.088 0.293 0.061 0.491 0.48 0.587 1.26 0.04 0.427 0.068 1.093 0.08 2.011 0.011 0.362 0.018 0.816 0.018 1.348v8.974l-0.037 1.393c-0.041 0.736-0.328 1.17-0.861 1.307-0.165 0.042-0.425 0.065-0.786 0.065-0.227 0-0.341 0.072-0.341 0.213 0 0.134 0.14 0.202 0.421 0.202l3.367-0.068c0.091 0.015 0.197 0.022 0.321 0.022l1.724 0.046c0.28 0 0.421-0.068 0.421-0.202 0-0.141-0.122-0.213-0.361-0.213-0.144 0-0.338-0.023-0.578-0.065-0.458-0.091-0.705-0.525-0.745-1.307l-0.04-1.393v-3.931c0-0.102 0.04-0.156 0.12-0.156z" fill="#ffe3a6"/></g><g transform="translate(274.88 240.93)"><path d="m0 0-7.13 11.323-5.698-11.313-10.543 0.016 13.64 28.192h9.299l-4.455-9.77 7.185 9.77h10.926l-10.111-13.061 10.283-15.155z" fill="#ffe3a6"/></g><g transform="translate(299.31 261.86)"><path d="m0 0c0.908-0.633 1.732-1.394 2.473-2.279 0.623-0.772 1.193-1.722 1.703-2.848 0.512-1.125 0.767-2.454 0.767-3.99 0-2.074-0.426-3.867-1.277-5.381-0.853-1.513-1.969-2.756-3.347-3.725-1.377-0.969-2.948-1.681-4.709-2.137-1.762-0.454-2.027-0.472-3.769-0.567l-5.505 8.078c2.132-0.016 6.632 0.374 7.741 1.132 1.107 0.76 1.662 1.777 1.662 3.054 0 0.882-0.221 1.596-0.662 2.137-0.44 0.544-1.009 0.966-1.706 1.27-0.694 0.305-1.464 0.499-2.3 0.616-0.983 0.138-8.467 0.191-8.467 0.191l9.105 11.68 20.102 0.056-3.575-7.343z" fill="#ffe3a6"/></g></g></g></svg>
